<svg width="70" height="70" viewBox="0 0 70 70" fill="none" xmlns="http://www.w3.org/2000/svg">
<rect width="70" height="70" rx="10" fill="#D9D9D9"/>
<path d="M12.28 40V37.92H14.6V30.4H12.28V28.32H19.32V30.4H17V37.92H19.32V40H12.28ZM21.2658 40V31.2H23.1538V32.48H23.5378L23.2338 32.704C23.2338 32.2027 23.3778 31.8027 23.6658 31.504C23.9538 31.1947 24.3111 31.04 24.7378 31.04C25.1964 31.04 25.5538 31.2373 25.8098 31.632C26.0658 32.0267 26.1938 32.5493 26.1938 33.2L25.9058 32.48H26.3538L26.2098 32.704C26.2098 32.2027 26.3484 31.8027 26.6258 31.504C26.9031 31.1947 27.2764 31.04 27.7458 31.04C28.2791 31.04 28.7111 31.2427 29.0417 31.648C29.3724 32.0427 29.5378 32.5867 29.5378 33.28V40H27.4738V33.44C27.4738 33.1947 27.4204 33.008 27.3138 32.88C27.2071 32.7413 27.0524 32.672 26.8498 32.672C26.6471 32.672 26.4924 32.7413 26.3858 32.88C26.2791 33.008 26.2258 33.1947 26.2258 33.44V40H24.5778V33.44C24.5778 33.1947 24.5244 33.008 24.4178 32.88C24.3111 32.7413 24.1564 32.672 23.9538 32.672C23.7511 32.672 23.5964 32.7413 23.4898 32.88C23.3831 33.008 23.3298 33.1947 23.3298 33.44V40H21.2658ZM33.8515 40.16C32.9662 40.16 32.2622 39.92 31.7395 39.44C31.2275 38.96 30.9715 38.3093 30.9715 37.488C30.9715 36.6027 31.2755 35.9253 31.8835 35.456C32.5022 34.976 33.3875 34.736 34.5395 34.736H36.3635V34.08C36.3635 33.7387 36.2408 33.4667 35.9955 33.264C35.7608 33.0613 35.4408 32.96 35.0355 32.96C34.6622 32.96 34.3528 33.0453 34.1075 33.216C33.8622 33.3867 33.7128 33.6213 33.6595 33.92H31.3395C31.4355 33.0347 31.8195 32.336 32.4915 31.824C33.1742 31.3013 34.0488 31.04 35.1155 31.04C36.2355 31.04 37.1208 31.3173 37.7715 31.872C38.4328 32.416 38.7635 33.152 38.7635 34.08V40H36.4435V38.56H36.0595L36.4595 38C36.4595 38.6613 36.2195 39.1893 35.7395 39.584C35.2702 39.968 34.6408 40.16 33.8515 40.16ZM34.7475 38.4C35.2168 38.4 35.6008 38.2773 35.8995 38.032C36.2088 37.776 36.3635 37.4453 36.3635 37.04V36.096H34.5875C34.2248 36.096 33.9315 36.2027 33.7075 36.416C33.4835 36.6187 33.3715 36.8907 33.3715 37.232C33.3715 37.5947 33.4942 37.8827 33.7395 38.096C33.9848 38.2987 34.3208 38.4 34.7475 38.4ZM42.1013 42.88V40.96H44.5813C45.0293 40.96 45.3706 40.848 45.6053 40.624C45.8506 40.4 45.9733 40.0907 45.9733 39.696V39.36L46.0053 37.68H45.4453L46.0053 37.12C46.0053 37.8773 45.7973 38.4693 45.3813 38.896C44.9653 39.312 44.3946 39.52 43.6693 39.52C42.7839 39.52 42.0746 39.2107 41.5413 38.592C41.0079 37.9733 40.7413 37.136 40.7413 36.08V34.48C40.7413 33.4347 41.0079 32.6027 41.5413 31.984C42.0746 31.3547 42.7839 31.04 43.6693 31.04C44.3946 31.04 44.9653 31.2533 45.3813 31.68C45.7973 32.096 46.0053 32.6827 46.0053 33.44L45.4453 32.88H46.0053L45.9253 31.2H48.3253V39.776C48.3253 40.736 47.9946 41.4933 47.3333 42.048C46.6826 42.6027 45.7919 42.88 44.6613 42.88H42.1013ZM44.5333 37.44C44.9706 37.44 45.3119 37.3173 45.5573 37.072C45.8026 36.816 45.9253 36.4587 45.9253 36V34.56C45.9253 34.1013 45.8026 33.7493 45.5573 33.504C45.3119 33.248 44.9706 33.12 44.5333 33.12C44.0853 33.12 43.7386 33.248 43.4933 33.504C43.2586 33.7493 43.1413 34.1013 43.1413 34.56V36C43.1413 36.4587 43.2586 36.816 43.4933 37.072C43.7386 37.3173 44.0853 37.44 44.5333 37.44ZM54.191 40.16C53.4123 40.16 52.7297 40.016 52.143 39.728C51.567 39.4293 51.119 39.0187 50.799 38.496C50.4897 37.9627 50.335 37.344 50.335 36.64V34.56C50.335 33.856 50.4897 33.2427 50.799 32.72C51.119 32.1867 51.567 31.776 52.143 31.488C52.7297 31.1893 53.4123 31.04 54.191 31.04C54.9697 31.04 55.6417 31.1893 56.207 31.488C56.783 31.776 57.2257 32.1867 57.535 32.72C57.855 33.2427 58.015 33.856 58.015 34.56V36.16H52.623V36.64C52.623 37.1947 52.7563 37.616 53.023 37.904C53.2897 38.1813 53.6897 38.32 54.223 38.32C54.5963 38.32 54.895 38.256 55.119 38.128C55.3537 38 55.5083 37.824 55.583 37.6H57.935C57.743 38.368 57.3057 38.9867 56.623 39.456C55.951 39.9253 55.1403 40.16 54.191 40.16ZM55.727 34.928V34.528C55.727 33.984 55.599 33.568 55.343 33.28C55.0977 32.992 54.7137 32.848 54.191 32.848C53.6683 32.848 53.2737 32.9973 53.007 33.296C52.751 33.5947 52.623 34.016 52.623 34.56V34.8L55.887 34.768L55.727 34.928Z" fill="black"/>
</svg>
