<svg width="214" height="58" viewBox="0 0 214 58" fill="none" xmlns="http://www.w3.org/2000/svg">
<g filter="url(#filter0_d_2_37)">
<path d="M25.4077 13.5384C25.2893 12.2363 24.7625 11.2242 23.8274 10.5021C22.9041 9.76823 21.5843 9.40128 19.8679 9.40128C18.7315 9.40128 17.7846 9.54924 17.027 9.84517C16.2694 10.1411 15.7012 10.5495 15.3224 11.0703C14.9437 11.5793 14.7483 12.1652 14.7365 12.8281C14.7128 13.3726 14.8194 13.852 15.0561 14.2663C15.3047 14.6806 15.6598 15.0476 16.1214 15.3672C16.5949 15.675 17.1631 15.9472 17.826 16.1839C18.4889 16.4207 19.2346 16.6278 20.0632 16.8054L23.1882 17.5156C24.9875 17.9062 26.5736 18.4271 27.9467 19.0781C29.3317 19.7292 30.4917 20.5045 31.4268 21.4041C32.3738 22.3037 33.09 23.3395 33.5753 24.5114C34.0606 25.6832 34.3092 26.9972 34.321 28.4531C34.3092 30.7495 33.7292 32.7204 32.581 34.3658C31.4328 36.0111 29.7815 37.2718 27.6271 38.1477C25.4846 39.0237 22.8982 39.4616 19.8679 39.4616C16.8258 39.4616 14.1742 39.0059 11.9134 38.0945C9.65246 37.183 7.89465 35.7981 6.63991 33.9396C5.38518 32.0812 4.74006 29.7315 4.70455 26.8906H13.1207C13.1918 28.0625 13.5054 29.0391 14.0618 29.8203C14.6181 30.6016 15.3816 31.1934 16.3523 31.5959C17.3348 31.9983 18.4711 32.1996 19.7614 32.1996C20.9451 32.1996 21.9512 32.0398 22.7798 31.7202C23.6203 31.4006 24.2654 30.9567 24.7152 30.3885C25.165 29.8203 25.3958 29.1693 25.4077 28.4354C25.3958 27.7488 25.1828 27.1629 24.7685 26.6776C24.3542 26.1804 23.715 25.7543 22.8509 25.3991C21.9986 25.0322 20.9096 24.6948 19.5838 24.3871L15.7841 23.4993C12.6354 22.7772 10.1555 21.6113 8.34446 20.0014C6.53338 18.3797 5.63376 16.1899 5.6456 13.4318C5.63376 11.1828 6.23745 9.21188 7.45668 7.51918C8.6759 5.82647 10.3627 4.50663 12.517 3.55966C14.6714 2.61269 17.1276 2.1392 19.8857 2.1392C22.7029 2.1392 25.1473 2.61861 27.2188 3.57741C29.3021 4.52438 30.9179 5.85606 32.0661 7.57244C33.2143 9.28883 33.8002 11.2775 33.8239 13.5384H25.4077ZM54.1541 11.7273V18.1193H36.9489V11.7273H54.1541ZM40.5533 5.19318H49.2358V30.424C49.2358 30.9567 49.3187 31.3887 49.4844 31.7202C49.6619 32.0398 49.9164 32.2706 50.2479 32.4126C50.5793 32.5429 50.9759 32.608 51.4375 32.608C51.7689 32.608 52.1181 32.5784 52.4851 32.5192C52.8639 32.4482 53.148 32.389 53.3374 32.3416L54.6513 38.6094C54.237 38.7277 53.651 38.8757 52.8935 39.0533C52.1477 39.2308 51.254 39.3433 50.2124 39.3906C48.1764 39.4853 46.4304 39.2486 44.9744 38.6804C43.5303 38.1004 42.4235 37.2008 41.6541 35.9815C40.8965 34.7623 40.5296 33.2294 40.5533 31.3828V5.19318ZM71.022 39.5149C68.1574 39.5149 65.6953 38.929 63.6357 37.7571C61.5878 36.5734 60.0076 34.928 58.8949 32.821C57.794 30.7022 57.2436 28.246 57.2436 25.4524C57.2436 22.647 57.794 20.1908 58.8949 18.0838C60.0076 15.965 61.5878 14.3196 63.6357 13.1477C65.6953 11.964 68.1574 11.3722 71.022 11.3722C73.8866 11.3722 76.3428 11.964 78.3906 13.1477C80.4503 14.3196 82.0305 15.965 83.1314 18.0838C84.2441 20.1908 84.8004 22.647 84.8004 25.4524C84.8004 28.246 84.2441 30.7022 83.1314 32.821C82.0305 34.928 80.4503 36.5734 78.3906 37.7571C76.3428 38.929 73.8866 39.5149 71.022 39.5149ZM71.0753 32.9631C72.117 32.9631 72.9988 32.6435 73.7209 32.0043C74.4429 31.3651 74.9934 30.4773 75.3722 29.3409C75.7628 28.2045 75.9581 26.8906 75.9581 25.3991C75.9581 23.884 75.7628 22.5582 75.3722 21.4219C74.9934 20.2855 74.4429 19.3977 73.7209 18.7585C72.9988 18.1193 72.117 17.7997 71.0753 17.7997C69.9981 17.7997 69.0866 18.1193 68.3409 18.7585C67.607 19.3977 67.0447 20.2855 66.6541 21.4219C66.2753 22.5582 66.0859 23.884 66.0859 25.3991C66.0859 26.8906 66.2753 28.2045 66.6541 29.3409C67.0447 30.4773 67.607 31.3651 68.3409 32.0043C69.0866 32.6435 69.9981 32.9631 71.0753 32.9631ZM101.979 39.5149C99.1026 39.5149 96.6346 38.9231 94.5749 37.7393C92.5271 36.5556 90.9528 34.9103 89.8519 32.8033C88.7511 30.6844 88.2006 28.2341 88.2006 25.4524C88.2006 22.6589 88.7511 20.2086 89.8519 18.1016C90.9646 15.9827 92.5449 14.3314 94.5927 13.1477C96.6523 11.964 99.1085 11.3722 101.961 11.3722C104.483 11.3722 106.678 11.8279 108.549 12.7393C110.431 13.6508 111.899 14.9411 112.952 16.6101C114.017 18.2673 114.58 20.2145 114.639 22.4517H106.525C106.359 21.0549 105.885 19.96 105.104 19.1669C104.335 18.3738 103.328 17.9773 102.086 17.9773C101.079 17.9773 100.198 18.2614 99.44 18.8295C98.6824 19.3859 98.0906 20.2145 97.6644 21.3153C97.2501 22.4044 97.043 23.7538 97.043 25.3636C97.043 26.9735 97.2501 28.3348 97.6644 29.4474C98.0906 30.5483 98.6824 31.3828 99.44 31.951C100.198 32.5073 101.079 32.7855 102.086 32.7855C102.891 32.7855 103.601 32.6139 104.216 32.2706C104.844 31.9273 105.359 31.4242 105.761 30.7614C106.163 30.0866 106.418 29.2699 106.525 28.3111H114.639C114.556 30.5601 113.994 32.5251 112.952 34.206C111.922 35.8868 110.472 37.1948 108.602 38.13C106.743 39.0533 104.536 39.5149 101.979 39.5149ZM126.912 31.8445L126.948 21.4929H128.155L135.826 11.7273H145.662L134.263 25.7188H131.973L126.912 31.8445ZM119.082 39V2.63636H127.765V39H119.082ZM136.021 39L128.883 27.6719L134.601 21.5107L146.053 39H136.021ZM148.77 39V11.7273H157.452V39H148.77ZM153.12 8.54901C151.901 8.54901 150.853 8.14654 149.977 7.34162C149.101 6.52486 148.663 5.54238 148.663 4.39418C148.663 3.25781 149.101 2.28717 149.977 1.48224C150.853 0.665481 151.901 0.2571 153.12 0.2571C154.351 0.2571 155.398 0.665481 156.263 1.48224C157.139 2.28717 157.577 3.25781 157.577 4.39418C157.577 5.54238 157.139 6.52486 156.263 7.34162C155.398 8.14654 154.351 8.54901 153.12 8.54901ZM178.479 11.7273V18.1193H160.937V11.7273H178.479ZM164.594 39V10.3423C164.594 8.23532 164.991 6.48935 165.784 5.1044C166.577 3.70762 167.678 2.66596 169.087 1.9794C170.495 1.28101 172.123 0.931816 173.969 0.931816C175.177 0.931816 176.313 1.02651 177.379 1.21591C178.456 1.39347 179.255 1.55327 179.776 1.69531L178.391 8.05185C178.071 7.94531 177.68 7.85653 177.219 7.78551C176.769 7.71449 176.343 7.67898 175.94 7.67898C174.922 7.67898 174.224 7.90388 173.845 8.35369C173.466 8.8035 173.277 9.41903 173.277 10.2003V39H164.594ZM187.965 49.2273C186.924 49.2273 185.941 49.1444 185.018 48.9787C184.095 48.8248 183.302 48.6177 182.639 48.3572L184.556 42.054C185.409 42.3381 186.178 42.5038 186.865 42.5511C187.563 42.5985 188.161 42.486 188.658 42.2138C189.167 41.9534 189.557 41.4858 189.83 40.8111L190.167 39.9943L180.472 11.7273H189.563L194.588 31.1875H194.872L199.968 11.7273H209.112L198.832 41.6101C198.335 43.1016 197.63 44.4155 196.719 45.5518C195.819 46.7 194.653 47.5997 193.221 48.2507C191.801 48.9018 190.049 49.2273 187.965 49.2273Z" fill="#FF6A00"/>
</g>
<defs>
<filter id="filter0_d_2_37" x="0.704559" y="0.257111" width="212.408" height="56.9702" filterUnits="userSpaceOnUse" color-interpolation-filters="sRGB">
<feFlood flood-opacity="0" result="BackgroundImageFix"/>
<feColorMatrix in="SourceAlpha" type="matrix" values="0 0 0 0 0 0 0 0 0 0 0 0 0 0 0 0 0 0 127 0" result="hardAlpha"/>
<feOffset dy="4"/>
<feGaussianBlur stdDeviation="2"/>
<feComposite in2="hardAlpha" operator="out"/>
<feColorMatrix type="matrix" values="0 0 0 0 0 0 0 0 0 0 0 0 0 0 0 0 0 0 0.25 0"/>
<feBlend mode="normal" in2="BackgroundImageFix" result="effect1_dropShadow_2_37"/>
<feBlend mode="normal" in="SourceGraphic" in2="effect1_dropShadow_2_37" result="shape"/>
</filter>
</defs>
</svg>
